<svg width="1200" height="1200" viewBox="0 0 1200 1200" fill="none" xmlns="http://www.w3.org/2000/svg">
  <rect width="1200" height="1200" rx="48" fill="#07101C"/>
  <rect x="70" y="70" width="1060" height="1060" rx="38" fill="#0B1627" stroke="#223347"/>
  <rect x="136" y="136" width="320" height="30" rx="15" fill="#17304B"/>
  <rect x="136" y="208" width="928" height="250" rx="30" fill="url(#g1)"/>
  <rect x="136" y="520" width="430" height="470" rx="30" fill="#0F2035" stroke="#2E4866"/>
  <rect x="610" y="520" width="454" height="206" rx="30" fill="#0D1B2B" stroke="#24384F"/>
  <rect x="610" y="784" width="454" height="206" rx="30" fill="#0D1B2B" stroke="#24384F"/>
  <circle cx="980" cy="152" r="12" fill="#51A7FF"/>
  <circle cx="1018" cy="152" r="12" fill="#7CD4FF" fill-opacity="0.75"/>
  <circle cx="1056" cy="152" r="12" fill="#C7D5E3" fill-opacity="0.5"/>
  <rect x="178" y="562" width="210" height="24" rx="12" fill="#7CD4FF" fill-opacity="0.8"/>
  <rect x="178" y="612" width="336" height="12" rx="6" fill="#29415E"/>
  <rect x="178" y="638" width="300" height="12" rx="6" fill="#23384E"/>
  <rect x="178" y="664" width="270" height="12" rx="6" fill="#23384E"/>
  <rect x="652" y="562" width="228" height="22" rx="11" fill="#A6DEFF" fill-opacity="0.82"/>
  <rect x="652" y="612" width="344" height="12" rx="6" fill="#27415A"/>
  <rect x="652" y="638" width="306" height="12" rx="6" fill="#22384E"/>
  <rect x="652" y="826" width="228" height="22" rx="11" fill="#A6DEFF" fill-opacity="0.82"/>
  <rect x="652" y="876" width="344" height="12" rx="6" fill="#27415A"/>
  <rect x="652" y="902" width="286" height="12" rx="6" fill="#22384E"/>
  <defs>
    <linearGradient id="g1" x1="136" y1="208" x2="1064" y2="458" gradientUnits="userSpaceOnUse">
      <stop stop-color="#15314D"/>
      <stop offset="1" stop-color="#0C607E"/>
    </linearGradient>
  </defs>
</svg>
